<svg width="419" height="99" viewBox="0 0 419 99" fill="none" xmlns="http://www.w3.org/2000/svg">
<path d="M228.113 69.0023H184.75L188.136 6.94189H224.218L228.113 69.0023Z" fill="var(--topB)"/>
<path d="M209.929 95.2699H202.879C198.058 95.2699 193.434 93.9273 190.024 91.5374C186.615 89.1475 184.699 85.9061 184.699 82.5262V69.0023H228.109V82.5262C228.115 84.2009 227.649 85.86 226.738 87.4081C225.826 88.9562 224.487 90.3627 222.798 91.5469C221.108 92.7311 219.102 93.6697 216.893 94.3086C214.685 94.9475 212.318 95.2742 209.929 95.2699Z" fill="var(--topB)"/>
<path d="M184.748 69.0023H141.338L151.68 6.94189H188.133L184.748 69.0023Z" fill="var(--topW)"/>
<path d="M166.568 95.2699H159.333C156.943 95.2742 154.577 94.9475 152.368 94.3086C150.16 93.6697 148.153 92.7311 146.464 91.5469C144.774 90.3627 143.435 88.9562 142.524 87.4081C141.612 85.86 141.146 84.2009 141.152 82.5262V69.0023H184.516V82.5262C184.528 85.8807 182.649 89.1026 179.287 91.4897C175.925 93.8768 171.353 95.2356 166.568 95.2699Z" fill="var(--bottomW)"/>
<path d="M141.105 69.0023H97.6953L115.922 6.94189H151.169L141.105 69.0023Z" fill="var(--topB)"/>
<path d="M122.925 95.2699H115.876C113.486 95.2742 111.12 94.9475 108.911 94.3086C106.703 93.6697 104.696 92.7311 103.007 91.5469C101.317 90.3627 99.9783 88.9562 99.0668 87.4081C98.1553 85.86 97.6893 84.2009 97.6954 82.5262V69.0023H141.105V82.5262C141.105 84.1997 140.635 85.8569 139.721 87.403C138.808 88.9492 137.468 90.354 135.78 91.5374C134.092 92.7207 132.088 93.6594 129.882 94.2998C127.677 94.9403 125.312 95.2699 122.925 95.2699Z" fill="var(--topB)"/>
<path d="M97.6481 69.0023H54.2383L78.5867 6.94189H115.921L97.6481 69.0023Z" fill="var(--topW)"/>
<path d="M79.468 95.2699H72.4185C70.0293 95.2742 67.6625 94.9475 65.454 94.3086C63.2455 93.6697 61.2389 92.7311 59.5495 91.5469C57.8601 90.3627 56.5212 88.9562 55.6098 87.4081C54.6983 85.86 54.2322 84.2009 54.2383 82.5262V69.0023H97.6481V82.5262C97.6481 84.1997 97.1779 85.8569 96.2642 87.403C95.3506 88.9492 94.0115 90.354 92.3233 91.5374C90.6351 92.7207 88.6309 93.6594 86.4252 94.2998C84.2195 94.9403 81.8554 95.2699 79.468 95.2699Z" fill="var(--bottomW)"/>
<path d="M54.3317 69.0023H10.9219L42.0415 6.94189H78.5874L54.3317 69.0023Z" fill="var(--topB)"/>
<path d="M36.1516 95.2699H29.1021C26.7129 95.2742 24.3461 94.9475 22.1376 94.3086C19.9291 93.6697 17.9225 92.7311 16.2331 91.5469C14.5437 90.3627 13.2048 88.9562 12.2934 87.4081C11.3819 85.86 10.9158 84.2009 10.9219 82.5262V69.0023H54.3317V82.5262C54.3317 84.1997 53.8615 85.8569 52.9478 87.403C52.0342 88.9492 50.6951 90.354 49.0069 91.5374C47.3187 92.7207 45.3145 93.6594 43.1088 94.2998C40.9031 94.9403 38.539 95.2699 36.1516 95.2699Z" fill="var(--topB)"/>
<path d="M228.34 69.0023H271.704L261.361 6.94189H224.908L228.34 69.0023Z" fill="var(--topW)"/>
<path d="M246.52 95.2699H253.523C255.912 95.2742 258.279 94.9475 260.488 94.3086C262.696 93.6697 264.703 92.7311 266.392 91.5469C268.082 90.3627 269.42 88.9562 270.332 87.4081C271.243 85.86 271.709 84.2009 271.703 82.5262V69.0023H228.34V82.5262C228.334 84.2009 228.8 85.86 229.711 87.4081C230.623 88.9562 231.962 90.3627 233.651 91.5469C235.341 92.7311 237.347 93.6697 239.556 94.3086C241.764 94.9475 244.131 95.2742 246.52 95.2699Z" fill="var(--bottomW)"/>
<path d="M271.941 69.0023H315.351L297.171 6.94189H261.877L271.941 69.0023Z" fill="var(--topB)"/>
<path d="M290.12 95.2699H297.169C299.558 95.2742 301.925 94.9475 304.134 94.3086C306.342 93.6697 308.349 92.7311 310.038 91.5469C311.727 90.3627 313.066 88.9562 313.978 87.4081C314.889 85.86 315.355 84.2009 315.349 82.5262V69.0023H271.939V82.5262C271.939 84.1997 272.41 85.8569 273.323 87.403C274.237 88.9492 275.576 90.354 277.264 91.5374C278.952 92.7207 280.957 93.6594 283.162 94.2998C285.368 94.9403 287.732 95.2699 290.12 95.2699Z" fill="var(--topB)"/>
<path d="M315.437 69.0023H358.8L334.452 6.94189H297.164L315.437 69.0023Z" fill="var(--topW)"/>
<path d="M333.575 95.2699H340.624C343.009 95.2699 345.371 94.9401 347.574 94.2992C349.778 93.6584 351.779 92.7192 353.463 91.5354C355.148 90.3516 356.482 88.9465 357.391 87.4006C358.3 85.8546 358.764 84.1982 358.758 82.5262V69.0023H315.395V82.5262C315.395 85.9061 317.31 89.1475 320.719 91.5374C324.129 93.9273 328.753 95.2699 333.575 95.2699Z" fill="var(--bottomW)"/>
<path d="M358.709 69.0023H402.119L370.999 6.94189H334.453L358.709 69.0023Z" fill="var(--topB)"/>
<path d="M376.892 95.2699H383.941C386.33 95.2742 388.697 94.9475 390.906 94.3086C393.114 93.6697 395.121 92.7311 396.81 91.5469C398.499 90.3627 399.838 88.9562 400.75 87.4081C401.661 85.86 402.127 84.2009 402.121 82.5262V69.0023H358.758V82.5262C358.758 85.9004 360.667 89.1369 364.066 91.5259C367.466 93.9149 372.078 95.2613 376.892 95.2699Z" fill="var(--topB)"/>
<path d="M372.022 3.49585H39.8164V10.4203H372.022V3.49585Z" fill="#121212"/>
</svg>
