<?xml version="1.0" standalone="no"?>
<!DOCTYPE svg PUBLIC "-//W3C//DTD SVG 20010904//EN"
 "http://www.w3.org/TR/2001/REC-SVG-20010904/DTD/svg10.dtd">
<svg version="1.0" xmlns="http://www.w3.org/2000/svg"
 width="73.000000pt" height="73.000000pt" viewBox="0 0 73.000000 73.000000"
 preserveAspectRatio="xMidYMid meet">
<metadata>
Created by potrace 1.14, written by Peter Selinger 2001-2017
</metadata>
<g transform="translate(0.000000,73.000000) scale(0.100000,-0.100000)"
fill="#000000" stroke="none">
<path d="M0 365 l0 -355 365 0 365 0 0 355 0 355 -365 0 -365 0 0 -355z m618
180 c4 -106 -3 -139 -39 -180 -30 -34 -44 -39 -139 -49 -25 -3 -46 -5 -47 -5
-2 -1 -3 -48 -3 -105 0 -119 3 -116 -106 -116 -75 0 -140 31 -169 81 -17 29
-20 56 -24 181 -2 82 0 159 3 172 8 31 53 85 80 96 12 5 115 8 231 7 l210 -2
3 -80z"/>
<path d="M371 582 c-5 -2 -3 -18 5 -37 8 -20 14 -67 14 -110 l0 -75 53 0 c91
0 133 42 130 130 0 14 -1 42 -2 63 l-1 37 -95 -2 c-52 -2 -99 -4 -104 -6z"/>
<path d="M165 558 l-27 -23 1 -159 c2 -215 15 -236 148 -236 l66 0 -7 193 c-7
232 -11 240 -98 245 -46 2 -60 -1 -83 -20z"/>
</g>
</svg>
